<svg role="img" viewBox="0 0 9 9" xmlns="http://www.w3.org/2000/svg" id="Infosys--Streamline-Simple-Icons" height="9" width="9"><desc>Infosys Streamline Icon: https://streamlinehq.com</desc><title>Infosys</title><path d="M8.727525 2.8388625c-0.14939999999999998 0 -0.271725 0.12307499999999999 -0.271725 0.272475 0 0.1504875 0.12232499999999999 0.271725 0.271725 0.271725 0.14932499999999999 0 0.272475 -0.1212375 0.272475 -0.271725 0 -0.14939999999999998 -0.12315000000000001 -0.272475 -0.272475 -0.272475zm0 0.040275c0.1273125 0 0.2322 0.1048125 0.2322 0.2322 0 0.12735000000000002 -0.1048875 0.23145 -0.2322 0.23145 -0.1273875 0 -0.2314125 -0.1041 -0.2314125 -0.23145 0 -0.1273875 0.10402499999999999 -0.2322 0.2314125 -0.2322zm-5.6762625 0.0205125c-0.3375375 0 -0.580875 0.22188750000000002 -0.6145125 0.615225h-0.2607375v0.19556249999999997h0.2571c0.00105 0.6249 -0.00075 1.25025 -0.00075 1.87425h0.291525c-0.000825 -0.6247125 -0.00075 -1.2494625 -0.00075 -1.87425h0.6555c-0.24225000000000002 0.196575 -0.3998625 0.5152125 -0.3998625 0.8752500000000001 0 0.597375 0.43365000000000004 1.0817999999999999 0.9682499999999999 1.0817999999999999 0.534675 0 0.9682499999999999 -0.484425 0.9682499999999999 -1.0817999999999999 0 -0.0711 -0.0065249999999999996 -0.14073750000000002 -0.0183 -0.2080125 0.09618750000000001 0.1549125 0.2808 0.22998749999999998 0.528075 0.3369375 0.2919 0.12337500000000001 0.4548375 0.23118750000000002 0.4548375 0.41527499999999995 0 0.2206875 -0.20850000000000002 0.33581249999999996 -0.44313749999999996 0.33397499999999997 -0.229125 0 -0.4081125 -0.093375 -0.6071625 -0.2739375v0.3464625c0.1214625 0.07830000000000001 0.3096 0.1230375 0.5134125 0.1230375 0.25665 -0.0008625 0.784425 -0.093375 0.784425 -0.628425 -0.00165 -0.3208875 -0.268125 -0.4589625 -0.5573625 -0.584475 -0.3518625 -0.1744875 -0.4861875 -0.21108749999999998 -0.4826625 -0.41088749999999996 0 -0.2658 0.23167500000000002 -0.34571250000000003 0.41235 -0.34571250000000003 0.0787125 0 0.1459125 0.0109875 0.209475 0.03225 0.11861250000000001 0.044775 0.1578375 0.1332375 0.19995000000000002 0.22923749999999998 0.1981125 0.46335000000000004 0.3879 0.9304125000000001 0.5808 1.3960125 -0.09240000000000001 0.2113875 -0.19725 0.43196249999999997 -0.2688 0.5727375l-0.0014624999999999998 0.003675 -0.060037499999999994 0.1113375 -0.0673875 0.126h0.2856375c0.12457499999999999 -0.275325 0.65385 -1.5633 0.7675875 -1.8406124999999998 0.0748125 0.19987500000000002 0.2571375 0.2800125 0.5361374999999999 0.40065 0.2918625 0.12337500000000001 0.45555 0.231225 0.45555 0.41527499999999995 0 0.220725 -0.208575 0.33509999999999995 -0.4431 0.3332625 -0.23805 0 -0.42213749999999994 -0.10068750000000001 -0.6306375 -0.2951625l-0.0190125 -0.015375v0.3529875c0.1168125 0.097125 0.3267375 0.153825 0.5559 0.153825 0.25665 -0.000825 0.784425 -0.093375 0.784425 -0.628425 -0.001575 -0.3208875 -0.26816249999999997 -0.459675 -0.5573625 -0.5851875 -0.3519 -0.17452499999999999 -0.47223750000000003 -0.21112499999999998 -0.46875 -0.41088749999999996 0 -0.265875 0.2170125 -0.34571250000000003 0.39768749999999997 -0.34571250000000003 0.2056125 0 0.33592500000000003 0.0763875 0.5171250000000001 0.2080125V3.594c-0.14711249999999998 -0.0517875 -0.27044999999999997 -0.0718125 -0.43657499999999994 -0.0710625 -0.3342 -0.000675 -0.636225 0.12127500000000001 -0.71265 0.403575l-0.414525 1.0253999999999999 -0.0432375 0.1288875 -0.0380625 -0.1288875c-0.188325 -0.45333750000000006 -0.372525 -0.9088499999999999 -0.5573625 -1.3615875 -0.118275 -0.03105 -0.31151249999999997 -0.075375 -0.447525 -0.0732375 -0.014137499999999999 -0.0002625 -0.028425000000000002 -0.00007500000000000001 -0.0432 0 -0.38632500000000003 -0.00075 -0.7588124999999999 0.16244999999999998 -0.7588124999999999 0.546375 0 0.022350000000000002 0.000825 0.043312500000000004 0.0022500000000000003 0.06375 -0.1545 -0.36798749999999997 -0.48885 -0.622575 -0.87675 -0.622575 -0.0466875 0 -0.0927 0.0031875000000000002 -0.13770000000000002 0.0102375H2.72025c-0.044775 -0.274875 0.08355 -0.43136250000000004 0.2768625 -0.43136250000000004 0.2427 -0.000225 0.346575 0.07200000000000001 0.451875 0.1691625 0 0 0.0073124999999999996 -0.0002625 0.010275 0 0.001425 -0.0921375 0.00075 -0.19942500000000002 0.00075 -0.2980875 -0.06937499999999999 -0.0321375 -0.1897875 -0.0549375 -0.40871250000000003 -0.0549375zM0 2.9085v2.6762625h0.32227500000000003V2.9084624999999997zm8.625 0.051975v0.28713750000000005h0.052012499999999996v-0.115725h0.0615l0.044700000000000004 0.115725h0.0578625l-0.0527625 -0.1237875c0.018525 -0.0093 0.04983749999999999 -0.019424999999999998 0.04983749999999999 -0.0703125 0 -0.0834 -0.0627375 -0.093 -0.1171875 -0.093zm0.052012499999999996 0.0498h0.0578625c0.031275 0 0.04833749999999999 0.0126375 0.04833749999999999 0.038099999999999995 0 0.025500000000000002 -0.01965 0.037349999999999994 -0.04395 0.037349999999999994h-0.06225zM1.5644624999999999 3.5083124999999997c-0.354375 0 -0.5035875 0.12596249999999998 -0.621825 0.252675a0.092775 0.092775 0 0 0 -0.0132 0.024149999999999998h-0.0029249999999999996v-0.016125l-0.003675 -0.233625H0.640125v2.0493375h0.290775v-1.4985375c0.008475 -0.1839375 0.267525 -0.365475 0.46950000000000003 -0.365475 0.24288750000000003 0 0.4416375 0.16365000000000002 0.4416375 0.389625v1.4743875000000002h0.290775c-0.0007125 -0.535875 -0.00075 -1.07175 -0.00075 -1.6076625 -0.008775 -0.1813125 -0.22852500000000003 -0.46875 -0.5676 -0.46875zm2.3562 0.208725c0.3652875 -0.006562500000000001 0.6684375 0.38302500000000006 0.6767624999999999 0.8694 0.00825 0.486375 -0.2814 0.8855250000000001 -0.646725 0.8920874999999999 -0.365325 0.0064125 -0.6684375 -0.38231250000000006 -0.6767624999999999 -0.8686499999999999 -0.0082875 -0.48641249999999997 0.28136249999999996 -0.8862749999999999 0.646725 -0.8928375Z" fill="#321ab3" stroke-width="0.375"></path></svg>